<svg id="SVG_Pops" data-name="SVG Pops" xmlns="http://www.w3.org/2000/svg" viewBox="0 0 116 150"><defs><style>.cls-1{fill:#00ff85;}.cls-2{fill:#fff;}.cls-3{fill:#221f1f;}</style></defs><title>01-07</title><rect id="BG" class="cls-1" width="116" height="150"/><g id="Pop1"><path class="cls-2" d="M42.54,34.45a54.25,54.25,0,0,1,19.12-4.52C67,29.68,89.4,28.62,97.28,43.08c3.81,7,4.52,18.09-1,25.06-8,10.17-23.08,3.83-37.2,17.28a31,31,0,0,0-6.65,8.28C47,104,51.6,111,46.46,116.38c-4,4.1-11.57,5-16.12,2.15s-5.29-8.88-5.79-14.24c-2.81-30.14-5-53.69,10.65-65.71A30.17,30.17,0,0,1,42.54,34.45Z"/><circle class="cls-3" cx="59.34" cy="40.17" r="1.55"/><circle class="cls-3" cx="66.4" cy="40.17" r="1.55"/></g></svg>