<svg id="SVG_Pops" data-name="SVG Pops" xmlns="http://www.w3.org/2000/svg" viewBox="0 0 116 150"><defs><style>.cls-1{fill:#00ff85;}.cls-2{fill:#fff;}.cls-3{fill:#221f1f;}</style></defs><title>03</title><rect id="BG" class="cls-1" width="116" height="150"/><g id="Pop3"><path class="cls-2" d="M42,34.45a54.25,54.25,0,0,1,19.12-4.52c5.35-.25,27.73-1.31,35.62,13.15,3.81,7,4.52,18.09-1,25.06-8,10.17-23.08,3.83-37.2,17.28a31,31,0,0,0-6.65,8.28c-5.5,10.31-.87,17.34-6,22.67-4,4.1-11.57,5-16.12,2.15s-5.29-8.88-5.79-14.24C21.21,74.15,19,50.6,34.67,38.59A30.17,30.17,0,0,1,42,34.45Z"/><circle class="cls-3" cx="58.81" cy="40.17" r="1.55"/><circle class="cls-3" cx="65.87" cy="40.17" r="1.55"/><rect class="cls-2" x="46.18" y="13.43" width="6.26" height="23.81" rx="2.43" ry="2.43"/><rect class="cls-2" x="59.12" y="10.01" width="6.26" height="23.81" rx="2.43" ry="2.43"/></g></svg>