<svg id="SVG_Pops" data-name="SVG Pops" xmlns="http://www.w3.org/2000/svg" viewBox="0 0 116 150"><defs><style>.cls-1{fill:#00ff85;}.cls-2{fill:#fff;}.cls-3{fill:#221f1f;}</style></defs><title>04</title><rect id="BG" class="cls-1" width="116" height="150"/><g id="Pop4"><path class="cls-2" d="M107.49,59.65A8.56,8.56,0,0,0,102.83,52a8.55,8.55,0,0,0-4.2-14.35A8.55,8.55,0,0,0,84,29.8a8.52,8.52,0,0,0-10-2,8.55,8.55,0,0,0-15.82-.49,8.56,8.56,0,0,0-16.36,3.39,8.55,8.55,0,0,0-14.2,6.44c0,0.14,0,.28,0,0.42A8.53,8.53,0,0,0,18.05,46a8.51,8.51,0,0,0,1.32,4.55,8.54,8.54,0,0,0-1.55,14.52A8.55,8.55,0,0,0,16.07,79a8.54,8.54,0,0,0,3.86,13,8.55,8.55,0,0,0-.68,13.87,8.53,8.53,0,0,0,7.9,10.41,8.55,8.55,0,1,0,16.56,3.53,8.55,8.55,0,0,0,11.19-9.7,8.55,8.55,0,0,0,3.58-13.48,8.44,8.44,0,0,0,3.29-7.9,8.56,8.56,0,0,0,12.09-4.14,8.54,8.54,0,0,0,14.3-6A8.56,8.56,0,0,0,100.75,68,8.56,8.56,0,0,0,107.49,59.65Z"/><circle class="cls-3" cx="58.9" cy="40.04" r="1.55"/><circle class="cls-3" cx="65.96" cy="40.04" r="1.55"/></g></svg>