<svg id="SVG_Pops" data-name="SVG Pops" xmlns="http://www.w3.org/2000/svg" viewBox="0 0 116 150"><defs><style>.cls-1{fill:#00ff85;}.cls-2{fill:#fff;}.cls-3{fill:#f0f;}</style></defs><title>06</title><rect id="BG" class="cls-1" width="116" height="150"/><g id="Pop6"><path class="cls-2" d="M23.56,89.84c0,2-1.42,3.69-2.73,5.22-3.72,4.36-7,9.61-6.9,15.34s4.62,11.68,10.34,11.39c6.66-.33,11.31-8.27,18-7.95,5,0.24,8.34,4.91,12.13,8.13,5.66,4.82,15.51,6.14,19.8.07,5.54-7.84-2.86-19.89,2.33-28,2.17-3.39,6.16-5,9.67-7a43.91,43.91,0,0,0,17.23-17.53c3.18-5.95,4.53-14.26-.56-18.69-2.14-1.86-5.17-2.75-6.7-5.14-2-3.07-.59-7.1-0.81-10.75-0.43-7.24-8.69-12.86-15.58-10.6-3.84,1.26-6.82,4.38-10.62,5.77-7.62,2.79-17.31-1.76-23.69,3.26-1.95,1.54-3.22,3.75-4.62,5.8C38.21,43.07,36.69,54.5,33,57.36c-5.69,4.38-14.26,3.73-18.54,10.09C6.83,78.8,23.4,80.61,23.56,89.84Z"/><circle class="cls-1" cx="63.34" cy="40.17" r="1.55"/><circle class="cls-3" cx="70.4" cy="40.17" r="1.55"/></g></svg>